# xmcd CD database file
#
# Track frame offsets:
#	150
#	10825
#	20588
#	31363
#	44950
#	55738
#	67750
#	77213
#	88663
#	96825
#
# Disc length: 1451 seconds
#
# Revision: 3
# Processed by: cddbd v1.5.1PL2 Copyright (c) Steve Scherf et al.
# Submitted via: CDex 1.70beta2
#
DISCID=7b05a90a
DTITLE=Statler Brothers - Oh, Happy Day
DYEAR=1993
DGENRE=Country
TTITLE0=Flowers On The Wall
TTITLE1=King Of The Road
TTITLE2=Ruby Don't Take Your Love To Town
TTITLE3=Green, Green Grass of Home
TTITLE4=I'm Not Quite Through
TTITLE5=There Goes My Everything
TTITLE6=That'll Be The Day
TTITLE7=Daddy Sang Bass
TTITLE8=This Ole House
TTITLE9=Oh, Happy Day
EXTD=YEAR: 1993
EXTT0=
EXTT1=
EXTT2=
EXTT3=
EXTT4=
EXTT5=
EXTT6=
EXTT7=
EXTT8=
EXTT9=
PLAYORDER=
